<svg xmlns="http://www.w3.org/2000/svg" xmlns:xlink="http://www.w3.org/1999/xlink" width="95px" height="142px" style="shape-rendering:geometricPrecision; text-rendering:geometricPrecision; image-rendering:optimizeQuality; fill-rule:evenodd; clip-rule:evenodd"><g><path style="opacity:1" fill="#4593be" d="M 43.5,34.5 C 44.3351,33.0568 45.6684,32.0568 47.5,31.5C 42.5189,26.6912 36.8523,22.8579 30.5,20C 31.756,19.5831 32.4226,18.7498 32.5,17.5C 33.4816,14.0381 33.815,10.3714 33.5,6.5C 39.5,6.5 45.5,6.5 51.5,6.5C 51.5,15.8333 51.5,25.1667 51.5,34.5C 48.8333,34.5 46.1667,34.5 43.5,34.5 Z"></path></g><g><path style="opacity:1" fill="#3f80ad" d="M 32.5,17.5 C 32.4226,18.7498 31.756,19.5831 30.5,20C 36.8523,22.8579 42.5189,26.6912 47.5,31.5C 45.6684,32.0568 44.3351,33.0568 43.5,34.5C 39.3219,34.8779 35.3219,35.8779 31.5,37.5C 30.4019,36.603 30.4019,35.7697 31.5,35C 27.6667,32.1667 23.8333,29.3333 20,26.5C 18.1598,28.4904 16.9931,28.4904 16.5,26.5C 21.2175,22.4728 26.5508,19.4728 32.5,17.5 Z"></path></g><g><path style="opacity:1" fill="#356797" d="M 16.5,26.5 C 16.9931,28.4904 18.1598,28.4904 20,26.5C 23.8333,29.3333 27.6667,32.1667 31.5,35C 30.4019,35.7697 30.4019,36.603 31.5,37.5C 27.7308,39.9374 25.0642,43.2708 23.5,47.5C 22.2502,47.5774 21.4169,48.244 21,49.5C 20.2935,47.9194 19.4601,46.4194 18.5,45C 15.5999,44.0568 13.2666,42.3901 11.5,40C 10.0406,40.3554 8.70722,40.1888 7.5,39.5C 9.33752,34.3346 12.3375,30.0013 16.5,26.5 Z"></path></g><g><path style="opacity:1" fill="#3972a1" d="M 80.5,77.5 C 80.2172,78.2891 79.7172,78.9558 79,79.5C 64.8887,68.4545 50.722,58.4545 36.5,49.5C 38.7586,47.2445 41.592,46.2445 45,46.5C 57.5622,47.7776 67.5622,53.4443 75,63.5C 77.9166,67.7514 79.75,72.4181 80.5,77.5 Z"></path></g><g><path style="opacity:0.982" fill="#346394" d="M 36.5,49.5 C 50.722,58.4545 64.8887,68.4545 79,79.5C 79.7172,78.9558 80.2172,78.2891 80.5,77.5C 81.8333,82.8333 81.8333,88.1667 80.5,93.5C 79.7784,93.9175 79.2784,94.5842 79,95.5C 75.1387,91.4596 70.6387,88.4596 65.5,86.5C 65.7148,84.8212 65.0481,83.8212 63.5,83.5C 60.8,70.6449 52.8,64.1449 39.5,64C 32.9434,60.1394 31.9434,55.306 36.5,49.5 Z"></path></g><g><path style="opacity:1" fill="#2c4c80" d="M 7.5,39.5 C 8.70722,40.1888 10.0406,40.3554 11.5,40C 13.2666,42.3901 15.5999,44.0568 18.5,45C 19.4601,46.4194 20.2935,47.9194 21,49.5C 21.4169,48.244 22.2502,47.5774 23.5,47.5C 19.2283,59.7957 22.8949,68.9624 34.5,75C 39.3448,75.7846 44.0115,77.1179 48.5,79C 52.0983,82.9428 52.4317,87.1094 49.5,91.5C 49.67,90.1779 49.3366,89.0113 48.5,88C 33.0471,77.3486 18.0471,66.8486 3.5,56.5C 3.13041,50.3172 4.46374,44.6505 7.5,39.5 Z"></path></g><g><path style="opacity:1" fill="#263c71" d="M 3.5,56.5 C 18.0471,66.8486 33.0471,77.3486 48.5,88C 49.3366,89.0113 49.67,90.1779 49.5,91.5C 48.5707,92.3149 47.5707,93.1482 46.5,94C 20.8652,94.5353 6.53182,82.0353 3.5,56.5 Z"></path></g><g><path style="opacity:1" fill="#2a477b" d="M 63.5,83.5 C 65.0481,83.8212 65.7148,84.8212 65.5,86.5C 70.6387,88.4596 75.1387,91.4596 79,95.5C 79.2784,94.5842 79.7784,93.9175 80.5,93.5C 79.6023,100.629 76.6023,106.629 71.5,111.5C 70.5244,110.185 69.5244,108.852 68.5,107.5C 64.75,105.637 61.4167,103.303 58.5,100.5C 61.9736,95.4081 63.6403,89.7415 63.5,83.5 Z"></path></g><g><path style="opacity:1" fill="#223268" d="M 58.5,100.5 C 61.4167,103.303 64.75,105.637 68.5,107.5C 69.5244,108.852 70.5244,110.185 71.5,111.5C 66.4238,118.043 59.7572,122.043 51.5,123.5C 51.5,127.167 51.5,130.833 51.5,134.5C 45.5,134.5 39.5,134.5 33.5,134.5C 33.5,125.167 33.5,115.833 33.5,106.5C 42.7923,107.928 51.1257,105.928 58.5,100.5 Z"></path></g></svg>