<svg xmlns="http://www.w3.org/2000/svg" xmlns:xlink="http://www.w3.org/1999/xlink" width="225px" height="225px" style="shape-rendering:geometricPrecision; text-rendering:geometricPrecision; image-rendering:optimizeQuality; fill-rule:evenodd; clip-rule:evenodd"><g><path style="opacity:1" fill="#e44b70" d="M 222.5,69.5 C 221.21,68.9423 220.377,67.9423 220,66.5C 218.671,67.4939 217.338,68.4939 216,69.5C 214.97,69.1639 214.47,68.4972 214.5,67.5C 215.621,65.9106 215.454,64.2439 214,62.5C 212.424,63.0125 211.091,62.3458 210,60.5C 208.332,61.4867 207.165,62.4867 206.5,63.5C 204.761,62.6002 202.928,61.9335 201,61.5C 198.114,62.8547 195.114,63.8547 192,64.5C 190.131,63.6313 189.631,62.4646 190.5,61C 189.552,60.5172 188.552,60.3505 187.5,60.5C 189.649,58.2542 192.316,56.7542 195.5,56C 208.086,53.6263 217.086,58.1263 222.5,69.5 Z"></path></g><g><path style="opacity:1" fill="#e54b6f" d="M 187.5,60.5 C 188.552,60.3505 189.552,60.5172 190.5,61C 189.631,62.4646 190.131,63.6313 192,64.5C 195.114,63.8547 198.114,62.8547 201,61.5C 202.928,61.9335 204.761,62.6002 206.5,63.5C 207.165,62.4867 208.332,61.4867 210,60.5C 211.091,62.3458 212.424,63.0125 214,62.5C 215.454,64.2439 215.621,65.9106 214.5,67.5C 213.5,67.5 212.5,67.5 211.5,67.5C 211.533,64.258 210.2,63.9246 207.5,66.5C 208.325,67.3857 209.325,67.719 210.5,67.5C 210.629,69.2161 210.962,70.8828 211.5,72.5C 203.679,65.286 196.679,65.9527 190.5,74.5C 190.104,71.9556 190.771,69.7889 192.5,68C 192,67.5 191.5,67 191,66.5C 189.883,67.9494 189.216,69.6161 189,71.5C 185.15,73.5225 183.817,76.5225 185,80.5C 183.684,83.028 182.517,83.028 181.5,80.5C 183.977,79.12 183.977,78.12 181.5,77.5C 181.461,76.4168 181.127,75.4168 180.5,74.5C 181.325,73.6143 182.325,73.281 183.5,73.5C 183.785,71.712 183.452,70.0453 182.5,68.5C 181.591,70.3747 180.257,71.708 178.5,72.5C 180.053,67.2977 183.053,63.2977 187.5,60.5 Z"></path></g><g><path style="opacity:0.867" fill="#e0486e" d="M 177.5,72.5 C 173.769,73.1955 169.935,73.8622 166,74.5C 161.459,73.6959 156.292,73.5292 150.5,74C 148.598,74.1992 147.098,75.0325 146,76.5C 144.984,75.3659 144.317,75.6992 144,77.5C 142.083,74.0846 139.916,73.7512 137.5,76.5C 132.277,77.1497 131.611,78.983 135.5,82C 135.167,82.5 134.833,83 134.5,83.5C 130.808,84.6779 127.474,86.3445 124.5,88.5C 127.348,80.819 132.682,75.6523 140.5,73C 152.829,72.5001 165.162,72.3335 177.5,72.5 Z"></path></g><g><path style="opacity:1" fill="#e84a70" d="M 181.5,77.5 C 180.883,77.3893 180.383,77.056 180,76.5C 178.782,78.0192 177.282,79.1859 175.5,80C 176.71,81.0391 177.71,82.2058 178.5,83.5C 166.833,83.5 155.167,83.5 143.5,83.5C 153.659,82.6697 163.992,82.1697 174.5,82C 163.787,81.8108 153.12,81.3108 142.5,80.5C 140.591,81.3482 138.591,81.6816 136.5,81.5C 136.366,79.7085 136.699,78.0418 137.5,76.5C 139.916,73.7512 142.083,74.0846 144,77.5C 144.317,75.6992 144.984,75.3659 146,76.5C 147.098,75.0325 148.598,74.1992 150.5,74C 156.292,73.5292 161.459,73.6959 166,74.5C 169.935,73.8622 173.769,73.1955 177.5,72.5C 177.833,72.5 178.167,72.5 178.5,72.5C 180.257,71.708 181.591,70.3747 182.5,68.5C 183.452,70.0453 183.785,71.712 183.5,73.5C 182.325,73.281 181.325,73.6143 180.5,74.5C 181.127,75.4168 181.461,76.4168 181.5,77.5 Z"></path></g><g><path style="opacity:1" fill="#e74a6f" d="M 214.5,67.5 C 214.47,68.4972 214.97,69.1639 216,69.5C 217.338,68.4939 218.671,67.4939 220,66.5C 220.377,67.9423 221.21,68.9423 222.5,69.5C 223.167,70.1667 223.833,70.8333 224.5,71.5C 224.5,75.8333 224.5,80.1667 224.5,84.5C 223.675,86.8102 222.342,88.8102 220.5,90.5C 219.357,90.0919 218.357,89.4252 217.5,88.5C 218.506,87.6043 218.506,86.9377 217.5,86.5C 215.107,87.0948 213.273,88.4281 212,90.5C 210.294,89.6921 209.461,88.3588 209.5,86.5C 212.499,82.1756 213.165,77.509 211.5,72.5C 210.962,70.8828 210.629,69.2161 210.5,67.5C 209.325,67.719 208.325,67.3857 207.5,66.5C 210.2,63.9246 211.533,64.258 211.5,67.5C 212.5,67.5 213.5,67.5 214.5,67.5 Z"></path></g><g><path style="opacity:0.282" fill="#c25871" d="M 143.5,84.5 C 143.5,84.1667 143.5,83.8333 143.5,83.5C 155.167,83.5 166.833,83.5 178.5,83.5C 180.891,85.9352 182.558,88.9352 183.5,92.5C 181.485,90.3239 179.818,87.8239 178.5,85C 166.838,84.5001 155.171,84.3335 143.5,84.5 Z"></path></g><g><path style="opacity:1" fill="#ea4a6f" d="M 190.5,74.5 C 189.007,75.3121 188.34,76.6455 188.5,78.5C 188.486,80.6113 189.152,82.4447 190.5,84C 190.108,87.5389 189.775,91.0389 189.5,94.5C 188.448,94.6495 187.448,94.4828 186.5,94C 187.711,93.1072 187.711,92.2739 186.5,91.5C 185.583,92.1272 184.583,92.4606 183.5,92.5C 182.558,88.9352 180.891,85.9352 178.5,83.5C 177.71,82.2058 176.71,81.0391 175.5,80C 177.282,79.1859 178.782,78.0192 180,76.5C 180.383,77.056 180.883,77.3893 181.5,77.5C 183.977,78.12 183.977,79.12 181.5,80.5C 182.517,83.028 183.684,83.028 185,80.5C 183.817,76.5225 185.15,73.5225 189,71.5C 189.216,69.6161 189.883,67.9494 191,66.5C 191.5,67 192,67.5 192.5,68C 190.771,69.7889 190.104,71.9556 190.5,74.5 Z"></path></g><g><path style="opacity:1" fill="#e54a6f" d="M 44.5,103.5 C 43.0695,103.579 41.7362,103.246 40.5,102.5C 39.6143,103.325 39.281,104.325 39.5,105.5C 43.713,105.699 45.0464,107.699 43.5,111.5C 39.6665,108.34 36.6665,104.507 34.5,100C 32.1667,99.3333 29.8333,99.3333 27.5,100C 28.056,100.383 28.3893,100.883 28.5,101.5C 19.2377,98.4607 13.571,101.627 11.5,111C 11.8175,114.123 12.8175,116.956 14.5,119.5C 13.6236,119.369 12.9569,119.702 12.5,120.5C 13.5387,122.531 15.2054,123.864 17.5,124.5C 17.3764,125.107 17.0431,125.44 16.5,125.5C 12.9043,125.166 9.57098,124 6.5,122C 7.08971,120.491 7.75638,118.991 8.5,117.5C 9.16667,118.167 9.83333,118.833 10.5,119.5C 10.8333,119.167 11.1667,118.833 11.5,118.5C 9.83687,115.517 7.50353,113.184 4.5,111.5C 3.71317,112.242 3.04651,113.075 2.5,114C 4.87934,116.025 5.71267,118.525 5,121.5C 3.09236,118.668 2.25903,119.001 2.5,122.5C 1.31271,120.928 0.312714,119.261 -0.5,117.5C -0.5,113.167 -0.5,108.833 -0.5,104.5C 8.13531,88.1255 20.802,84.2922 37.5,93C 40.7224,95.9556 43.0558,99.4556 44.5,103.5 Z"></path></g><g><path style="opacity:1" fill="#e24b6f" d="M 190.5,74.5 C 189.201,83.1946 192.867,88.1946 201.5,89.5C 204.34,88.7967 207.007,87.7967 209.5,86.5C 209.461,88.3588 210.294,89.6921 212,90.5C 213.273,88.4281 215.107,87.0948 217.5,86.5C 218.506,86.9377 218.506,87.6043 217.5,88.5C 218.357,89.4252 219.357,90.0919 220.5,90.5C 219.5,93.5 217.5,95.5 214.5,96.5C 212.572,94.7061 210.238,93.7061 207.5,93.5C 207.5,94.8333 207.5,96.1667 207.5,97.5C 202.786,97.6469 198.119,97.3136 193.5,96.5C 193.5,95.5 193.5,94.5 193.5,93.5C 195.492,93.3285 197.158,93.9951 198.5,95.5C 200.97,94.2426 203.303,92.7426 205.5,91C 202.139,90.6633 198.806,90.1633 195.5,89.5C 193.019,91.7916 191.019,94.4583 189.5,97.5C 186.911,96.5806 184.911,94.914 183.5,92.5C 184.583,92.4606 185.583,92.1272 186.5,91.5C 187.711,92.2739 187.711,93.1072 186.5,94C 187.448,94.4828 188.448,94.6495 189.5,94.5C 189.775,91.0389 190.108,87.5389 190.5,84C 189.152,82.4447 188.486,80.6113 188.5,78.5C 188.34,76.6455 189.007,75.3121 190.5,74.5 Z"></path></g><g><path style="opacity:1" fill="#e64870" d="M 214.5,96.5 C 206.417,102.679 198.084,103.012 189.5,97.5C 191.019,94.4583 193.019,91.7916 195.5,89.5C 198.806,90.1633 202.139,90.6633 205.5,91C 203.303,92.7426 200.97,94.2426 198.5,95.5C 197.158,93.9951 195.492,93.3285 193.5,93.5C 193.5,94.5 193.5,95.5 193.5,96.5C 198.119,97.3136 202.786,97.6469 207.5,97.5C 207.5,96.1667 207.5,94.8333 207.5,93.5C 210.238,93.7061 212.572,94.7061 214.5,96.5 Z"></path></g><g><path style="opacity:1" fill="#e94a70" d="M 89.5,90.5 C 93.0495,91.7232 96.0495,93.7232 98.5,96.5C 95.3184,99.8166 95.9851,101.483 100.5,101.5C 100.374,103.2 99.7073,104.7 98.5,106C 98.8178,108.375 100.151,109.542 102.5,109.5C 102.67,110.822 102.337,111.989 101.5,113C 98.4887,112.198 95.4887,112.365 92.5,113.5C 92.6621,111.473 92.4955,109.473 92,107.5C 91.6174,106.944 91.1174,106.611 90.5,106.5C 88.8061,104.139 86.8061,102.139 84.5,100.5C 82.27,99.2818 80.27,97.7818 78.5,96C 79.385,93.8434 81.0516,93.0101 83.5,93.5C 83.5,92.5 83.5,91.5 83.5,90.5C 85.5,90.5 87.5,90.5 89.5,90.5 Z"></path></g><g><path style="opacity:1" fill="#e7496f" d="M 137.5,76.5 C 136.699,78.0418 136.366,79.7085 136.5,81.5C 138.591,81.6816 140.591,81.3482 142.5,80.5C 153.12,81.3108 163.787,81.8108 174.5,82C 163.992,82.1697 153.659,82.6697 143.5,83.5C 143.5,83.8333 143.5,84.1667 143.5,84.5C 141.265,85.2279 139.432,86.5612 138,88.5C 136.032,92.9601 134.698,97.6268 134,102.5C 132.657,105.862 130.824,108.862 128.5,111.5C 127.751,110.469 127.085,109.302 126.5,108C 120.659,107.437 120.326,106.27 125.5,104.5C 123.189,103.425 120.856,103.425 118.5,104.5C 122.016,99.7929 124.016,94.4596 124.5,88.5C 127.474,86.3445 130.808,84.6779 134.5,83.5C 134.833,83 135.167,82.5 135.5,82C 131.611,78.983 132.277,77.1497 137.5,76.5 Z"></path></g><g><path style="opacity:1" fill="#e34a6f" d="M 89.5,90.5 C 87.5,90.5 85.5,90.5 83.5,90.5C 83.5,91.5 83.5,92.5 83.5,93.5C 81.0516,93.0101 79.385,93.8434 78.5,96C 80.27,97.7818 82.27,99.2818 84.5,100.5C 72.9563,99.2082 68.123,104.208 70,115.5C 70.9973,117.323 72.1639,118.99 73.5,120.5C 71.9891,121.502 70.3224,122.169 68.5,122.5C 68.5,121.5 68.5,120.5 68.5,119.5C 67.5,119.5 66.5,119.5 65.5,119.5C 65.6567,120.873 65.49,122.207 65,123.5C 64.1739,121.595 63.0072,121.261 61.5,122.5C 62.9524,123.94 63.9524,125.606 64.5,127.5C 61.5485,125.619 59.5485,122.952 58.5,119.5C 53.8804,118.507 49.2137,118.173 44.5,118.5C 46.8097,117.836 49.3097,117.503 52,117.5C 55.0354,117.609 57.8687,118.276 60.5,119.5C 60.8333,119 61.1667,118.5 61.5,118C 61.3036,115.7 59.9703,113.7 57.5,112C 57.9662,110.701 57.9662,109.201 57.5,107.5C 53.0293,108.089 49.0293,107.423 45.5,105.5C 49.5546,105.824 53.5546,105.491 57.5,104.5C 64.1193,90.3011 74.786,85.6345 89.5,90.5 Z"></path></g><g><path style="opacity:1" fill="#dc4a6d" d="M 98.5,96.5 C 100.644,99.122 101.977,102.122 102.5,105.5C 106.833,105.5 111.167,105.5 115.5,105.5C 111.647,106.166 107.647,106.833 103.5,107.5C 103.667,107.833 103.833,108.167 104,108.5C 106.693,109.73 108.86,111.563 110.5,114C 114.148,114.062 117.815,113.895 121.5,113.5C 121.5,112.5 121.5,111.5 121.5,110.5C 122.5,110.5 123.5,110.5 124.5,110.5C 124.579,111.93 124.246,113.264 123.5,114.5C 124.325,115.386 125.325,115.719 126.5,115.5C 126.285,113.821 126.952,112.821 128.5,112.5C 130.604,114.372 131.937,116.705 132.5,119.5C 130.107,115.559 127.607,115.559 125,119.5C 122.457,118.793 120.291,117.46 118.5,115.5C 117.708,116.7 117.708,118.033 118.5,119.5C 113.562,118.608 108.562,118.274 103.5,118.5C 103.611,117.883 103.944,117.383 104.5,117C 106.5,116.667 108.5,116.333 110.5,116C 108.485,115.576 106.651,114.742 105,113.5C 102.512,116.687 99.8455,117.021 97,114.5C 92.6381,115.632 89.1381,118.132 86.5,122C 82.5,122.667 78.5,122.667 74.5,122C 73.944,121.617 73.6107,121.117 73.5,120.5C 85.9703,123.68 91.6369,119.013 90.5,106.5C 91.1174,106.611 91.6174,106.944 92,107.5C 92.4955,109.473 92.6621,111.473 92.5,113.5C 95.4887,112.365 98.4887,112.198 101.5,113C 102.337,111.989 102.67,110.822 102.5,109.5C 100.151,109.542 98.8178,108.375 98.5,106C 99.7073,104.7 100.374,103.2 100.5,101.5C 95.9851,101.483 95.3184,99.8166 98.5,96.5 Z"></path></g><g><path style="opacity:1" fill="#eb496f" d="M 128.5,111.5 C 128.5,111.833 128.5,112.167 128.5,112.5C 126.952,112.821 126.285,113.821 126.5,115.5C 125.325,115.719 124.325,115.386 123.5,114.5C 124.246,113.264 124.579,111.93 124.5,110.5C 123.5,110.5 122.5,110.5 121.5,110.5C 121.5,111.5 121.5,112.5 121.5,113.5C 117.815,113.895 114.148,114.062 110.5,114C 108.86,111.563 106.693,109.73 104,108.5C 103.833,108.167 103.667,107.833 103.5,107.5C 107.647,106.833 111.647,106.166 115.5,105.5C 116.391,104.89 117.391,104.557 118.5,104.5C 120.856,103.425 123.189,103.425 125.5,104.5C 120.326,106.27 120.659,107.437 126.5,108C 127.085,109.302 127.751,110.469 128.5,111.5 Z"></path></g><g><path style="opacity:1" fill="#e94970" d="M 44.5,103.5 C 44.8333,104.167 45.1667,104.833 45.5,105.5C 49.0293,107.423 53.0293,108.089 57.5,107.5C 57.9662,109.201 57.9662,110.701 57.5,112C 59.9703,113.7 61.3036,115.7 61.5,118C 61.1667,118.5 60.8333,119 60.5,119.5C 57.8687,118.276 55.0354,117.609 52,117.5C 49.3097,117.503 46.8097,117.836 44.5,118.5C 43.8826,118.389 43.3826,118.056 43,117.5C 42.6667,118.833 42.3333,120.167 42,121.5C 41.0857,119.336 39.919,117.336 38.5,115.5C 37.8333,116.5 37.1667,117.5 36.5,118.5C 35.4593,116.009 34.6259,116.009 34,118.5C 33.9603,115.876 34.127,113.209 34.5,110.5C 34.4439,108.36 33.7773,106.694 32.5,105.5C 31.5,103.833 30.1667,102.5 28.5,101.5C 28.3893,100.883 28.056,100.383 27.5,100C 29.8333,99.3333 32.1667,99.3333 34.5,100C 36.6665,104.507 39.6665,108.34 43.5,111.5C 45.0464,107.699 43.713,105.699 39.5,105.5C 39.281,104.325 39.6143,103.325 40.5,102.5C 41.7362,103.246 43.0695,103.579 44.5,103.5 Z"></path></g><g><path style="opacity:1" fill="#db4a6d" d="M 32.5,105.5 C 33.7773,106.694 34.4439,108.36 34.5,110.5C 34.127,113.209 33.9603,115.876 34,118.5C 34.6259,116.009 35.4593,116.009 36.5,118.5C 37.1667,117.5 37.8333,116.5 38.5,115.5C 39.919,117.336 41.0857,119.336 42,121.5C 42.3333,120.167 42.6667,118.833 43,117.5C 43.3826,118.056 43.8826,118.389 44.5,118.5C 38.8496,131.492 29.1829,136.159 15.5,132.5C 19.5138,132.666 23.5138,132.499 27.5,132C 24.854,131.503 22.1873,131.336 19.5,131.5C 19.6107,130.883 19.944,130.383 20.5,130C 24.2255,129.24 27.8922,129.407 31.5,130.5C 32.1373,129.782 32.1373,128.782 31.5,127.5C 31.8678,126.09 32.7011,125.09 34,124.5C 34.4922,125.549 34.3256,126.549 33.5,127.5C 34.325,128.386 35.325,128.719 36.5,128.5C 36.5,127.5 36.5,126.5 36.5,125.5C 37.675,125.719 38.675,125.386 39.5,124.5C 38.0921,123.757 36.7588,122.923 35.5,122C 29.5074,122.132 23.5074,122.132 17.5,122C 16.244,121.583 15.5774,120.75 15.5,119.5C 28.8425,124.006 34.5092,119.339 32.5,105.5 Z"></path></g><g><path style="opacity:1" fill="#e84970" d="M 16.5,125.5 C 16.1961,126.15 15.8627,126.817 15.5,127.5C 17.2156,128.549 18.5489,129.882 19.5,131.5C 22.1873,131.336 24.854,131.503 27.5,132C 23.5138,132.499 19.5138,132.666 15.5,132.5C 9.81681,130.836 5.48348,127.502 2.5,122.5C 2.25903,119.001 3.09236,118.668 5,121.5C 5.71267,118.525 4.87934,116.025 2.5,114C 3.04651,113.075 3.71317,112.242 4.5,111.5C 7.50353,113.184 9.83687,115.517 11.5,118.5C 11.1667,118.833 10.8333,119.167 10.5,119.5C 9.83333,118.833 9.16667,118.167 8.5,117.5C 7.75638,118.991 7.08971,120.491 6.5,122C 9.57098,124 12.9043,125.166 16.5,125.5 Z"></path></g><g><path style="opacity:1" fill="#e34a6f" d="M 102.5,118.5 C 96.6997,130.734 87.033,135.567 73.5,133C 69.8193,132.128 66.8193,130.294 64.5,127.5C 66.8553,128.094 69.022,129.094 71,130.5C 74.0333,128.473 76.8667,128.473 79.5,130.5C 77.9223,131.298 76.2556,131.798 74.5,132C 78.5,132.667 82.5,132.667 86.5,132C 81.5284,130.025 81.1951,127.358 85.5,124C 87.4727,123.505 89.4727,123.338 91.5,123.5C 91.33,122.178 91.6634,121.011 92.5,120C 95.0991,119.231 97.5991,119.398 100,120.5C 100.417,119.244 101.25,118.577 102.5,118.5 Z"></path></g><g><path style="opacity:1" fill="#eb4a71" d="M 103.5,118.5 C 103.167,118.5 102.833,118.5 102.5,118.5C 101.25,118.577 100.417,119.244 100,120.5C 97.5991,119.398 95.0991,119.231 92.5,120C 91.6634,121.011 91.33,122.178 91.5,123.5C 89.4727,123.338 87.4727,123.505 85.5,124C 81.1951,127.358 81.5284,130.025 86.5,132C 82.5,132.667 78.5,132.667 74.5,132C 76.2556,131.798 77.9223,131.298 79.5,130.5C 76.8667,128.473 74.0333,128.473 71,130.5C 69.022,129.094 66.8553,128.094 64.5,127.5C 63.9524,125.606 62.9524,123.94 61.5,122.5C 63.0072,121.261 64.1739,121.595 65,123.5C 65.49,122.207 65.6567,120.873 65.5,119.5C 66.5,119.5 67.5,119.5 68.5,119.5C 68.5,120.5 68.5,121.5 68.5,122.5C 70.3224,122.169 71.9891,121.502 73.5,120.5C 73.6107,121.117 73.944,121.617 74.5,122C 78.5,122.667 82.5,122.667 86.5,122C 89.1381,118.132 92.6381,115.632 97,114.5C 99.8455,117.021 102.512,116.687 105,113.5C 106.651,114.742 108.485,115.576 110.5,116C 108.5,116.333 106.5,116.667 104.5,117C 103.944,117.383 103.611,117.883 103.5,118.5 Z"></path></g><g><path style="opacity:1" fill="#ea4a6f" d="M 14.5,119.5 C 14.8333,119.5 15.1667,119.5 15.5,119.5C 15.5774,120.75 16.244,121.583 17.5,122C 23.5074,122.132 29.5074,122.132 35.5,122C 36.7588,122.923 38.0921,123.757 39.5,124.5C 38.675,125.386 37.675,125.719 36.5,125.5C 36.5,126.5 36.5,127.5 36.5,128.5C 35.325,128.719 34.325,128.386 33.5,127.5C 34.3256,126.549 34.4922,125.549 34,124.5C 32.7011,125.09 31.8678,126.09 31.5,127.5C 32.1373,128.782 32.1373,129.782 31.5,130.5C 27.8922,129.407 24.2255,129.24 20.5,130C 19.944,130.383 19.6107,130.883 19.5,131.5C 18.5489,129.882 17.2156,128.549 15.5,127.5C 15.8627,126.817 16.1961,126.15 16.5,125.5C 17.0431,125.44 17.3764,125.107 17.5,124.5C 15.2054,123.864 13.5387,122.531 12.5,120.5C 12.9569,119.702 13.6236,119.369 14.5,119.5 Z"></path></g><g><path style="opacity:1" fill="#eb4a70" d="M 132.5,119.5 C 133.397,124.14 133.564,128.806 133,133.5C 132.311,134.357 131.478,135.023 130.5,135.5C 128.929,133.585 126.929,132.585 124.5,132.5C 124.82,129.102 124.487,125.768 123.5,122.5C 122.274,120.722 120.607,119.722 118.5,119.5C 117.708,118.033 117.708,116.7 118.5,115.5C 120.291,117.46 122.457,118.793 125,119.5C 127.607,115.559 130.107,115.559 132.5,119.5 Z"></path></g><g><path style="opacity:1" fill="#e04b70" d="M 170.5,124.5 C 170.279,125.735 169.612,126.735 168.5,127.5C 169.762,130.28 168.762,131.946 165.5,132.5C 167.071,134.415 169.071,135.415 171.5,135.5C 171.238,134.022 171.571,132.689 172.5,131.5C 176.13,133.147 179.796,134.48 183.5,135.5C 170.994,133.674 165.994,139.007 168.5,151.5C 167.883,151.389 167.383,151.056 167,150.5C 166.502,147.518 166.335,144.518 166.5,141.5C 165.325,141.719 164.325,141.386 163.5,140.5C 164.5,139.667 165.5,138.833 166.5,138C 163.905,137.774 161.405,137.274 159,136.5C 158.788,140.406 158.955,144.073 159.5,147.5C 157.616,147.288 156.283,146.288 155.5,144.5C 157.276,143.685 157.943,142.518 157.5,141C 152.649,140.826 147.982,140.326 143.5,139.5C 147.514,139.666 151.514,139.499 155.5,139C 158.408,131.924 163.408,127.09 170.5,124.5 Z"></path></g><g><path style="opacity:1" fill="#eb4a70" d="M 170.5,124.5 C 175.57,124.685 180.57,125.352 185.5,126.5C 185.5,127.5 185.5,128.5 185.5,129.5C 176.572,130.272 176.906,131.272 186.5,132.5C 186.5,131.5 186.5,130.5 186.5,129.5C 188.124,129.64 189.29,128.973 190,127.5C 190.75,128.126 191.584,128.626 192.5,129C 189.899,131.43 187.899,134.264 186.5,137.5C 184.973,137.573 183.973,136.906 183.5,135.5C 179.796,134.48 176.13,133.147 172.5,131.5C 171.571,132.689 171.238,134.022 171.5,135.5C 169.071,135.415 167.071,134.415 165.5,132.5C 168.762,131.946 169.762,130.28 168.5,127.5C 169.612,126.735 170.279,125.735 170.5,124.5 Z"></path></g><g><path style="opacity:1" fill="#dc4b6e" d="M 118.5,119.5 C 120.607,119.722 122.274,120.722 123.5,122.5C 124.487,125.768 124.82,129.102 124.5,132.5C 126.929,132.585 128.929,133.585 130.5,135.5C 131.478,135.023 132.311,134.357 133,133.5C 133.564,128.806 133.397,124.14 132.5,119.5C 134.586,124.606 136.253,129.94 137.5,135.5C 135.309,134.922 133.642,135.922 132.5,138.5C 134.771,143.254 133.937,143.588 130,139.5C 129.968,142.668 131.468,145.001 134.5,146.5C 134.833,147.167 135.167,147.833 135.5,148.5C 132.269,146.78 129.436,144.447 127,141.5C 124.381,136.129 122.714,130.462 122,124.5C 121.003,122.677 119.836,121.01 118.5,119.5 Z"></path></g><g><path style="opacity:1" fill="#df4b6e" d="M 193.5,162.5 C 193.5,161.167 193.5,159.833 193.5,158.5C 194.5,158.5 195.5,158.5 196.5,158.5C 196.786,156.723 197.453,155.056 198.5,153.5C 197.053,151.383 197.22,149.383 199,147.5C 199.333,148.167 199.667,148.833 200,149.5C 200.497,146.854 200.664,144.187 200.5,141.5C 197.316,140.357 193.983,139.691 190.5,139.5C 190.665,143.182 190.499,146.848 190,150.5C 189.617,151.056 189.117,151.389 188.5,151.5C 190.218,146.474 189.551,141.808 186.5,137.5C 187.899,134.264 189.899,131.43 192.5,129C 191.584,128.626 190.75,128.126 190,127.5C 189.29,128.973 188.124,129.64 186.5,129.5C 186.5,130.5 186.5,131.5 186.5,132.5C 176.906,131.272 176.572,130.272 185.5,129.5C 185.5,128.5 185.5,127.5 185.5,126.5C 180.57,125.352 175.57,124.685 170.5,124.5C 184.962,120.48 195.129,125.48 201,139.5C 203.167,148.831 200.667,156.498 193.5,162.5 Z"></path></g><g><path style="opacity:1" fill="#e34c70" d="M 158.5,157.5 C 157.229,155.891 156.229,154.058 155.5,152C 150.5,151.667 145.5,151.333 140.5,151C 138.509,150.626 136.842,149.793 135.5,148.5C 135.167,147.833 134.833,147.167 134.5,146.5C 135.151,145.909 135.818,145.243 136.5,144.5C 139.94,146.567 143.607,147.4 147.5,147C 149.405,146.174 149.739,145.007 148.5,143.5C 146.807,145.279 144.807,145.779 142.5,145C 141.269,143.817 141.269,142.651 142.5,141.5C 143.167,142.167 143.833,142.833 144.5,143.5C 146.536,141.655 148.87,141.155 151.5,142C 156.584,145.891 158.918,151.057 158.5,157.5 Z"></path></g><g><path style="opacity:1" fill="#ea4a70" d="M 193.5,162.5 C 193.167,163.5 192.5,164.167 191.5,164.5C 187.4,165.381 183.233,166.048 179,166.5C 171.741,167.513 170.241,165.513 174.5,160.5C 175.696,160.846 175.696,161.346 174.5,162C 175.825,161.852 176.992,162.018 178,162.5C 180.172,161.491 181.338,159.824 181.5,157.5C 181.5,157.167 181.5,156.833 181.5,156.5C 184.067,155.283 186.4,153.616 188.5,151.5C 189.117,151.389 189.617,151.056 190,150.5C 190.499,146.848 190.665,143.182 190.5,139.5C 193.983,139.691 197.316,140.357 200.5,141.5C 200.664,144.187 200.497,146.854 200,149.5C 199.667,148.833 199.333,148.167 199,147.5C 197.22,149.383 197.053,151.383 198.5,153.5C 197.453,155.056 196.786,156.723 196.5,158.5C 195.5,158.5 194.5,158.5 193.5,158.5C 193.5,159.833 193.5,161.167 193.5,162.5 Z"></path></g><g><path style="opacity:1" fill="#e54b70" d="M 168.5,151.5 C 169.167,151.5 169.5,151.833 169.5,152.5C 169.916,154.752 171.249,156.252 173.5,157C 176.146,157.497 178.813,157.664 181.5,157.5C 181.338,159.824 180.172,161.491 178,162.5C 176.992,162.018 175.825,161.852 174.5,162C 175.696,161.346 175.696,160.846 174.5,160.5C 170.241,165.513 171.741,167.513 179,166.5C 183.233,166.048 187.4,165.381 191.5,164.5C 181.638,170.154 171.972,169.654 162.5,163C 160.561,161.568 159.228,159.735 158.5,157.5C 159.75,157.577 160.583,158.244 161,159.5C 162.767,158.183 164.101,156.516 165,154.5C 167.946,157.543 169.112,156.876 168.5,152.5C 166.227,151.265 164.394,151.598 163,153.5C 161.923,151.422 160.757,149.422 159.5,147.5C 158.955,144.073 158.788,140.406 159,136.5C 161.405,137.274 163.905,137.774 166.5,138C 165.5,138.833 164.5,139.667 163.5,140.5C 164.325,141.386 165.325,141.719 166.5,141.5C 166.335,144.518 166.502,147.518 167,150.5C 167.383,151.056 167.883,151.389 168.5,151.5 Z"></path></g><g><path style="opacity:1" fill="#ea4970" d="M 137.5,135.5 C 139.228,137.226 141.228,138.559 143.5,139.5C 147.982,140.326 152.649,140.826 157.5,141C 157.943,142.518 157.276,143.685 155.5,144.5C 156.283,146.288 157.616,147.288 159.5,147.5C 160.757,149.422 161.923,151.422 163,153.5C 164.394,151.598 166.227,151.265 168.5,152.5C 169.112,156.876 167.946,157.543 165,154.5C 164.101,156.516 162.767,158.183 161,159.5C 160.583,158.244 159.75,157.577 158.5,157.5C 158.918,151.057 156.584,145.891 151.5,142C 148.87,141.155 146.536,141.655 144.5,143.5C 143.833,142.833 143.167,142.167 142.5,141.5C 141.269,142.651 141.269,143.817 142.5,145C 144.807,145.779 146.807,145.279 148.5,143.5C 149.739,145.007 149.405,146.174 147.5,147C 143.607,147.4 139.94,146.567 136.5,144.5C 135.818,145.243 135.151,145.909 134.5,146.5C 131.468,145.001 129.968,142.668 130,139.5C 133.937,143.588 134.771,143.254 132.5,138.5C 133.642,135.922 135.309,134.922 137.5,135.5 Z"></path></g><g><path style="opacity:0.957" fill="#bd506b" d="M 169.5,152.5 C 172.729,155.925 176.729,157.258 181.5,156.5C 181.5,156.833 181.5,157.167 181.5,157.5C 178.813,157.664 176.146,157.497 173.5,157C 171.249,156.252 169.916,154.752 169.5,152.5 Z"></path></g></svg>