<svg xmlns="http://www.w3.org/2000/svg" xmlns:xlink="http://www.w3.org/1999/xlink" width="512px" height="512px" style="shape-rendering:geometricPrecision; text-rendering:geometricPrecision; image-rendering:optimizeQuality; fill-rule:evenodd; clip-rule:evenodd"><g><path style="opacity:0.971" fill="#03bdff" d="M 350.5,55.5 C 304.5,56.8333 258.5,56.8333 212.5,55.5C 258.606,28.861 304.606,28.861 350.5,55.5 Z"></path></g><g><path style="opacity:0.98" fill="#09b9ff" d="M 212.5,55.5 C 258.5,56.8333 304.5,56.8333 350.5,55.5C 359.112,60.3044 366.779,66.3044 373.5,73.5C 356.167,74.1667 338.833,74.8333 321.5,75.5C 295.14,64.859 268.806,64.859 242.5,75.5C 225.008,74.5033 207.341,74.1699 189.5,74.5C 196.268,67.0643 203.935,60.7309 212.5,55.5 Z"></path></g><g><path style="opacity:0.975" fill="#11b2ff" d="M 189.5,74.5 C 207.341,74.1699 225.008,74.5033 242.5,75.5C 224.169,83.4994 209.502,95.8327 198.5,112.5C 186.963,112.159 175.63,111.159 164.5,109.5C 170.628,96.2401 178.961,84.5734 189.5,74.5 Z"></path></g><g><path style="opacity:0.984" fill="#11b2ff" d="M 373.5,73.5 C 384.494,84.1665 393.16,96.4999 399.5,110.5C 388.012,111.495 376.345,111.828 364.5,111.5C 353.242,95.9151 338.908,83.9151 321.5,75.5C 338.833,74.8333 356.167,74.1667 373.5,73.5 Z"></path></g><g><path style="opacity:0.975" fill="#1ba9ff" d="M 164.5,109.5 C 175.63,111.159 186.963,112.159 198.5,112.5C 194.247,119.947 190.58,127.614 187.5,135.5C 177.219,133.524 166.552,132.857 155.5,133.5C 157.425,125.004 160.425,117.004 164.5,109.5 Z"></path></g><g><path style="opacity:0.976" fill="#1ba9ff" d="M 399.5,110.5 C 403.336,117.67 406.002,125.337 407.5,133.5C 396.833,133.5 386.167,133.5 375.5,133.5C 372.38,125.927 368.713,118.593 364.5,111.5C 376.345,111.828 388.012,111.495 399.5,110.5 Z"></path></g><g><path style="opacity:0.982" fill="#22a4ff" d="M 155.5,133.5 C 166.552,132.857 177.219,133.524 187.5,135.5C 186.148,141.278 184.815,146.945 183.5,152.5C 173.167,152.5 162.833,152.5 152.5,152.5C 152.744,146.035 153.744,139.701 155.5,133.5 Z"></path></g><g><path style="opacity:0.979" fill="#22a4ff" d="M 375.5,133.5 C 386.167,133.5 396.833,133.5 407.5,133.5C 409.564,139.562 410.897,145.895 411.5,152.5C 400.752,152.809 390.085,152.476 379.5,151.5C 378.168,145.504 376.834,139.504 375.5,133.5 Z"></path></g><g><path style="opacity:0.984" fill="#289fff" d="M 379.5,151.5 C 390.085,152.476 400.752,152.809 411.5,152.5C 411.941,158.594 411.941,164.594 411.5,170.5C 401.167,170.5 390.833,170.5 380.5,170.5C 380.593,164.137 380.26,157.804 379.5,151.5 Z"></path></g><g><path style="opacity:0.978" fill="#289eff" d="M 152.5,152.5 C 162.833,152.5 173.167,152.5 183.5,152.5C 183.663,157.547 183.329,162.547 182.5,167.5C 182.5,168.5 182.5,169.5 182.5,170.5C 171.909,169.895 161.575,170.562 151.5,172.5C 151.207,165.745 151.54,159.078 152.5,152.5 Z"></path></g><g><path style="opacity:0.979" fill="#2e9aff" d="M 182.5,167.5 C 183.146,173.79 184.146,180.123 185.5,186.5C 184.596,187.209 184.263,188.209 184.5,189.5C 174.167,189.5 163.833,189.5 153.5,189.5C 152.588,183.869 151.921,178.202 151.5,172.5C 161.575,170.562 171.909,169.895 182.5,170.5C 182.5,169.5 182.5,168.5 182.5,167.5 Z"></path></g><g><path style="opacity:0.959" fill="#2d9bff" d="M 304.5,187.5 C 302.108,188.713 299.441,189.379 296.5,189.5C 293.975,189.497 291.641,189.163 289.5,188.5C 288.499,175.307 281.832,170.807 269.5,175C 264.713,178.864 263.046,183.698 264.5,189.5C 259.405,189.221 254.405,189.555 249.5,190.5C 247.823,170.663 256.99,159.663 277,157.5C 294.719,159.717 303.885,169.717 304.5,187.5 Z"></path></g><g><path style="opacity:0.981" fill="#2e9aff" d="M 380.5,170.5 C 390.833,170.5 401.167,170.5 411.5,170.5C 411.761,177.072 411.094,183.406 409.5,189.5C 398.752,189.809 388.085,189.476 377.5,188.5C 379.054,182.628 380.054,176.628 380.5,170.5 Z"></path></g><g><path style="opacity:0.98" fill="#3594ff" d="M 185.5,186.5 C 187.228,194.351 189.562,202.018 192.5,209.5C 181.679,210.495 170.679,210.828 159.5,210.5C 156.744,203.823 154.744,196.823 153.5,189.5C 163.833,189.5 174.167,189.5 184.5,189.5C 184.263,188.209 184.596,187.209 185.5,186.5 Z"></path></g><g><path style="opacity:0.966" fill="#3694ff" d="M 304.5,187.5 C 300.17,208.666 287.504,216.666 266.5,211.5C 263.811,214.52 261.144,217.52 258.5,220.5C 253.18,218.789 247.514,217.789 241.5,217.5C 245.681,212.484 249.681,207.317 253.5,202C 251.076,198.561 249.742,194.727 249.5,190.5C 254.405,189.555 259.405,189.221 264.5,189.5C 268.885,198.35 275.552,200.517 284.5,196C 286.823,193.83 288.49,191.33 289.5,188.5C 291.641,189.163 293.975,189.497 296.5,189.5C 299.441,189.379 302.108,188.713 304.5,187.5 Z"></path></g><g><path style="opacity:0.979" fill="#3594ff" d="M 377.5,188.5 C 388.085,189.476 398.752,189.809 409.5,189.5C 408.727,197.268 406.727,204.601 403.5,211.5C 392.679,210.505 381.679,210.172 370.5,210.5C 373.4,203.362 375.733,196.028 377.5,188.5 Z"></path></g><g><path style="opacity:0.97" fill="#3e8cff" d="M 143.5,247.5 C 138.5,247.5 133.5,247.5 128.5,247.5C 130.537,237.592 126.537,231.592 116.5,229.5C 106.471,231.571 102.471,237.571 104.5,247.5C 99.5,247.5 94.5,247.5 89.5,247.5C 87.762,228.067 96.762,217.067 116.5,214.5C 136.24,217.074 145.24,228.074 143.5,247.5 Z"></path></g><g><path style="opacity:0.973" fill="#3b8fff" d="M 370.5,210.5 C 381.679,210.172 392.679,210.505 403.5,211.5C 401.795,217.956 399.128,223.956 395.5,229.5C 382.833,229.5 370.167,229.5 357.5,229.5C 362.093,223.303 366.427,216.97 370.5,210.5 Z"></path></g><g><path style="opacity:0.949" fill="#408bff" d="M 241.5,217.5 C 247.514,217.789 253.18,218.789 258.5,220.5C 251.395,229.723 244.062,238.723 236.5,247.5C 230.31,247.823 224.31,247.49 218.5,246.5C 225.926,236.651 233.593,226.985 241.5,217.5 Z"></path></g><g><path style="opacity:0.969" fill="#3f8cff" d="M 192.5,209.5 C 197.869,218.389 203.869,226.889 210.5,235C 208.571,238.599 206.237,241.933 203.5,245C 198.5,245.333 193.5,245.667 188.5,246C 185.851,246.452 183.351,247.286 181,248.5C 171.503,237.175 164.336,224.508 159.5,210.5C 170.679,210.828 181.679,210.495 192.5,209.5 Z"></path></g><g><path style="opacity:0.982" fill="#418aff" d="M 357.5,229.5 C 370.167,229.5 382.833,229.5 395.5,229.5C 391.618,235.02 390.284,241.02 391.5,247.5C 373.659,247.83 355.992,247.497 338.5,246.5C 345.481,241.517 351.814,235.851 357.5,229.5 Z"></path></g><g><path style="opacity:0.959" fill="#4785ff" d="M 89.5,247.5 C 94.5,247.5 99.5,247.5 104.5,247.5C 109.286,255.775 115.952,257.609 124.5,253C 126.439,251.568 127.772,249.735 128.5,247.5C 133.5,247.5 138.5,247.5 143.5,247.5C 151.136,252.656 159.136,257.323 167.5,261.5C 158.266,262.191 148.932,262.858 139.5,263.5C 138.417,263.461 137.417,263.127 136.5,262.5C 134.736,264.278 132.736,265.611 130.5,266.5C 116.5,266.5 102.5,266.5 88.5,266.5C 89.9117,264.02 91.5784,261.687 93.5,259.5C 91.161,255.816 89.8277,251.816 89.5,247.5 Z"></path></g><g><path style="opacity:0.94" fill="#4786ff" d="M 218.5,246.5 C 224.31,247.49 230.31,247.823 236.5,247.5C 232.894,253.438 228.561,258.771 223.5,263.5C 210.167,262.833 196.833,262.167 183.5,261.5C 185.277,260.4 187.277,259.566 189.5,259C 195.862,258.576 202.195,258.576 208.5,259C 211.732,254.672 215.066,250.506 218.5,246.5 Z"></path></g><g><path style="opacity:0.982" fill="#4785ff" d="M 338.5,246.5 C 355.992,247.497 373.659,247.83 391.5,247.5C 392.474,252.939 395.14,257.439 399.5,261C 408.224,256.847 415.557,258.681 421.5,266.5C 386.167,266.5 350.833,266.5 315.5,266.5C 315.737,267.791 315.404,268.791 314.5,269.5C 314.5,265.833 314.5,262.167 314.5,258.5C 323.33,256.085 331.33,252.085 338.5,246.5 Z"></path></g><g><path style="opacity:0.953" fill="#4784ff" d="M 301.5,266.5 C 284.833,266.5 268.167,266.5 251.5,266.5C 251.334,262.486 251.501,258.486 252,254.5C 252.465,253.069 253.299,251.903 254.5,251C 269.545,250.183 284.545,250.35 299.5,251.5C 300.192,252.025 300.692,252.692 301,253.5C 301.499,257.821 301.666,262.154 301.5,266.5 Z"></path></g><g><path style="opacity:0.936" fill="#4d80ff" d="M 88.5,266.5 C 102.5,266.5 116.5,266.5 130.5,266.5C 126.387,269.365 121.72,270.699 116.5,270.5C 112.824,270.572 109.324,269.906 106,268.5C 100.969,275.022 95.8025,281.356 90.5,287.5C 84.31,287.823 78.31,287.49 72.5,286.5C 77.4838,279.52 82.8171,272.854 88.5,266.5 Z"></path></g><g><path style="opacity:0.964" fill="#4c81ff" d="M 167.5,261.5 C 170.223,263.281 173.057,264.948 176,266.5C 178.382,264.611 180.882,262.945 183.5,261.5C 196.833,262.167 210.167,262.833 223.5,263.5C 222.611,265.736 221.278,267.736 219.5,269.5C 222.715,274.361 224.381,279.694 224.5,285.5C 219.723,287.792 214.723,288.125 209.5,286.5C 208.205,276.37 202.539,272.204 192.5,274C 186.386,276.387 183.386,280.887 183.5,287.5C 178.833,287.5 174.167,287.5 169.5,287.5C 169.5,285.5 169.5,283.5 169.5,281.5C 169.631,280.624 169.298,279.957 168.5,279.5C 158.61,274.392 148.944,269.059 139.5,263.5C 148.932,262.858 158.266,262.191 167.5,261.5 Z"></path></g><g><path style="opacity:0.98" fill="#4e7fff" d="M 251.5,266.5 C 268.167,266.5 284.833,266.5 301.5,266.5C 301.5,273.833 301.5,281.167 301.5,288.5C 285.167,288.5 268.833,288.5 252.5,288.5C 252.806,291.385 252.473,294.052 251.5,296.5C 251.5,286.5 251.5,276.5 251.5,266.5 Z"></path></g><g><path style="opacity:0.982" fill="#4d7fff" d="M 421.5,266.5 C 428.5,272.833 435.167,279.5 441.5,286.5C 419.833,287.833 398.167,287.833 376.5,286.5C 376.414,285.504 376.748,284.671 377.5,284C 369.925,275.581 360.925,273.248 350.5,277C 339.308,283.896 327.308,288.729 314.5,291.5C 314.5,284.167 314.5,276.833 314.5,269.5C 315.404,268.791 315.737,267.791 315.5,266.5C 350.833,266.5 386.167,266.5 421.5,266.5 Z"></path></g><g><path style="opacity:0.949" fill="#5479ff" d="M 72.5,286.5 C 78.31,287.49 84.31,287.823 90.5,287.5C 85.5162,294.48 80.1829,301.146 74.5,307.5C 68.8333,306.833 63.1667,306.167 57.5,305.5C 62.2701,298.946 67.2701,292.613 72.5,286.5 Z"></path></g><g><path style="opacity:0.956" fill="#5579ff" d="M 169.5,281.5 C 169.5,283.5 169.5,285.5 169.5,287.5C 174.167,287.5 178.833,287.5 183.5,287.5C 187.299,298.063 194.299,300.896 204.5,296C 207.354,293.459 209.021,290.292 209.5,286.5C 214.723,288.125 219.723,287.792 224.5,285.5C 223.87,299.618 216.87,308.784 203.5,313C 185.253,315.637 173.753,308.137 169,290.5C 168.195,287.304 168.362,284.304 169.5,281.5 Z"></path></g><g><path style="opacity:0.977" fill="#547aff" d="M 301.5,288.5 C 301.5,293.5 301.5,298.5 301.5,303.5C 300.596,304.209 300.263,305.209 300.5,306.5C 284.5,306.5 268.5,306.5 252.5,306.5C 252.806,309.385 252.473,312.052 251.5,314.5C 251.5,308.5 251.5,302.5 251.5,296.5C 252.473,294.052 252.806,291.385 252.5,288.5C 268.833,288.5 285.167,288.5 301.5,288.5 Z"></path></g><g><path style="opacity:0.989" fill="#547aff" d="M 376.5,286.5 C 398.167,287.833 419.833,287.833 441.5,286.5C 448.167,292.5 454.5,298.833 460.5,305.5C 434.833,306.167 409.167,306.833 383.5,307.5C 375.311,302.266 372.977,295.266 376.5,286.5 Z"></path></g><g><path style="opacity:0.963" fill="#5a75ff" d="M 141.5,328.5 C 140.566,327.432 140.232,326.099 140.5,324.5C 124.5,324.5 108.5,324.5 92.5,324.5C 92.7678,326.099 92.4345,327.432 91.5,328.5C 91.0619,320.057 91.5619,311.723 93,303.5C 94.0674,302.809 95.2341,302.309 96.5,302C 109.833,301.333 123.167,301.333 136.5,302C 137.766,302.309 138.933,302.809 140,303.5C 141.438,311.723 141.938,320.057 141.5,328.5 Z"></path></g><g><path style="opacity:0.978" fill="#5a75ff" d="M 301.5,303.5 C 301.5,310.5 301.5,317.5 301.5,324.5C 284.833,324.5 268.167,324.5 251.5,324.5C 251.5,321.167 251.5,317.833 251.5,314.5C 252.473,312.052 252.806,309.385 252.5,306.5C 268.5,306.5 284.5,306.5 300.5,306.5C 300.263,305.209 300.596,304.209 301.5,303.5 Z"></path></g><g><path style="opacity:0.99" fill="#5a75ff" d="M 460.5,305.5 C 467.167,311.5 473.5,317.833 479.5,324.5C 453.328,324.169 427.328,324.502 401.5,325.5C 395.167,319.833 389.167,313.833 383.5,307.5C 409.167,306.833 434.833,306.167 460.5,305.5 Z"></path></g><g><path style="opacity:0.966" fill="#5e71ff" d="M 57.5,305.5 C 63.1667,306.167 68.8333,306.833 74.5,307.5C 69.8797,314.558 64.8797,321.391 59.5,328C 62.4631,332.723 64.1297,337.89 64.5,343.5C 59.4053,343.221 54.4053,343.555 49.5,344.5C 46.3158,331.934 38.9824,328.768 27.5,335C 25.0979,337.703 23.7646,340.87 23.5,344.5C 18.5947,343.555 13.5947,343.221 8.5,343.5C 12.2499,321.625 24.9165,313.291 46.5,318.5C 50.5651,314.441 54.2317,310.107 57.5,305.5 Z"></path></g><g><path style="opacity:0.967" fill="#606fff" d="M 141.5,328.5 C 141.5,333.5 141.5,338.5 141.5,343.5C 125.167,343.5 108.833,343.5 92.5,343.5C 92.7373,344.791 92.404,345.791 91.5,346.5C 91.5,340.5 91.5,334.5 91.5,328.5C 92.4345,327.432 92.7678,326.099 92.5,324.5C 108.5,324.5 124.5,324.5 140.5,324.5C 140.232,326.099 140.566,327.432 141.5,328.5 Z"></path></g><g><path style="opacity:0.977" fill="#606fff" d="M 251.5,324.5 C 268.167,324.5 284.833,324.5 301.5,324.5C 301.5,330.833 301.5,337.167 301.5,343.5C 285.167,343.5 268.833,343.5 252.5,343.5C 252.737,342.209 252.404,341.209 251.5,340.5C 251.5,335.167 251.5,329.833 251.5,324.5 Z"></path></g><g><path style="opacity:0.996" fill="#606fff" d="M 479.5,324.5 C 485.833,330.167 491.833,336.167 497.5,342.5C 471.672,343.498 445.672,343.831 419.5,343.5C 413.167,337.833 407.167,331.833 401.5,325.5C 427.328,324.502 453.328,324.169 479.5,324.5 Z"></path></g><g><path style="opacity:0.971" fill="#646cff" d="M 221.5,355.5 C 204.833,355.5 188.167,355.5 171.5,355.5C 171.334,350.156 171.501,344.823 172,339.5C 172.374,338.584 172.874,337.75 173.5,337C 188.833,336.333 204.167,336.333 219.5,337C 220.126,337.75 220.626,338.584 221,339.5C 221.499,344.823 221.666,350.156 221.5,355.5 Z"></path></g><g><path style="opacity:0.988" fill="#666bff" d="M 497.5,342.5 C 502.655,350.389 503.655,358.722 500.5,367.5C 491.191,366.168 481.524,365.501 471.5,365.5C 461.661,365.5 451.994,365.834 442.5,366.5C 434.5,359.167 426.833,351.5 419.5,343.5C 445.672,343.831 471.672,343.498 497.5,342.5 Z"></path></g><g><path style="opacity:0.958" fill="#676aff" d="M 251.5,340.5 C 252.404,341.209 252.737,342.209 252.5,343.5C 268.833,343.5 285.167,343.5 301.5,343.5C 301.5,349.833 301.5,356.167 301.5,362.5C 300.596,363.209 300.263,364.209 300.5,365.5C 284.5,365.5 268.5,365.5 252.5,365.5C 252.795,367.735 252.461,369.735 251.5,371.5C 251.5,361.167 251.5,350.833 251.5,340.5 Z"></path></g><g><path style="opacity:0.966" fill="#676aff" d="M 141.5,343.5 C 141.5,351.833 141.5,360.167 141.5,368.5C 140.596,367.791 140.263,366.791 140.5,365.5C 124.167,365.5 107.833,365.5 91.5,365.5C 91.5,359.167 91.5,352.833 91.5,346.5C 92.404,345.791 92.7373,344.791 92.5,343.5C 108.833,343.5 125.167,343.5 141.5,343.5 Z"></path></g><g><path style="opacity:0.967" fill="#6769ff" d="M 8.5,343.5 C 13.5947,343.221 18.5947,343.555 23.5,344.5C 26.2269,355.696 32.8936,359.196 43.5,355C 46.9287,352.308 48.9287,348.808 49.5,344.5C 54.4053,343.555 59.4053,343.221 64.5,343.5C 63.3107,361.023 53.9774,370.689 36.5,372.5C 18.9895,370.657 9.65619,360.99 8.5,343.5 Z"></path></g><g><path style="opacity:0.974" fill="#6d65ff" d="M 301.5,362.5 C 301.5,368.5 301.5,374.5 301.5,380.5C 300.596,381.209 300.263,382.209 300.5,383.5C 284.089,383.182 267.756,383.516 251.5,384.5C 251.5,380.167 251.5,375.833 251.5,371.5C 252.461,369.735 252.795,367.735 252.5,365.5C 268.5,365.5 284.5,365.5 300.5,365.5C 300.263,364.209 300.596,363.209 301.5,362.5 Z"></path></g><g><path style="opacity:0.979" fill="#6d65ff" d="M 91.5,365.5 C 107.833,365.5 124.167,365.5 140.5,365.5C 140.263,366.791 140.596,367.791 141.5,368.5C 141.5,373.5 141.5,378.5 141.5,383.5C 125.167,383.5 108.833,383.5 92.5,383.5C 92.7373,384.791 92.404,385.791 91.5,386.5C 91.5,379.5 91.5,372.5 91.5,365.5 Z"></path></g><g><path style="opacity:0.97" fill="#6c66ff" d="M 171.5,355.5 C 188.167,355.5 204.833,355.5 221.5,355.5C 221.5,365.833 221.5,376.167 221.5,386.5C 220.596,385.791 220.263,384.791 220.5,383.5C 204.089,383.182 187.756,383.516 171.5,384.5C 171.5,374.833 171.5,365.167 171.5,355.5 Z"></path></g><g><path style="opacity:0.986" fill="#6d65ff" d="M 500.5,367.5 C 494.637,382.44 483.637,388.606 467.5,386C 464.756,385.197 462.089,384.197 459.5,383C 453.33,377.996 447.663,372.496 442.5,366.5C 451.994,365.834 461.661,365.5 471.5,365.5C 481.524,365.501 491.191,366.168 500.5,367.5 Z"></path></g><g><path style="opacity:0.977" fill="#7360ff" d="M 301.5,380.5 C 301.5,387.833 301.5,395.167 301.5,402.5C 284.833,402.5 268.167,402.5 251.5,402.5C 251.5,396.5 251.5,390.5 251.5,384.5C 267.756,383.516 284.089,383.182 300.5,383.5C 300.263,382.209 300.596,381.209 301.5,380.5 Z"></path></g><g><path style="opacity:0.98" fill="#7360ff" d="M 141.5,383.5 C 141.5,388.833 141.5,394.167 141.5,399.5C 140.596,400.209 140.263,401.209 140.5,402.5C 124.5,402.5 108.5,402.5 92.5,402.5C 92.7373,401.209 92.404,400.209 91.5,399.5C 91.5,395.167 91.5,390.833 91.5,386.5C 92.404,385.791 92.7373,384.791 92.5,383.5C 108.833,383.5 125.167,383.5 141.5,383.5 Z"></path></g><g><path style="opacity:0.98" fill="#7360ff" d="M 221.5,386.5 C 221.5,393.167 221.5,399.833 221.5,406.5C 220.566,405.432 220.232,404.099 220.5,402.5C 204.5,402.5 188.5,402.5 172.5,402.5C 172.737,401.209 172.404,400.209 171.5,399.5C 171.5,394.5 171.5,389.5 171.5,384.5C 187.756,383.516 204.089,383.182 220.5,383.5C 220.263,384.791 220.596,385.791 221.5,386.5 Z"></path></g><g><path style="opacity:0.97" fill="#7a5aff" d="M 171.5,399.5 C 172.404,400.209 172.737,401.209 172.5,402.5C 188.5,402.5 204.5,402.5 220.5,402.5C 220.232,404.099 220.566,405.432 221.5,406.5C 221.5,412.833 221.5,419.167 221.5,425.5C 205.167,425.5 188.833,425.5 172.5,425.5C 172.737,426.791 172.404,427.791 171.5,428.5C 171.5,418.833 171.5,409.167 171.5,399.5 Z"></path></g><g><path style="opacity:0.976" fill="#795bff" d="M 61.5,425.5 C 45.1667,425.5 28.8333,425.5 12.5,425.5C 12.7373,426.791 12.404,427.791 11.5,428.5C 11.3335,418.161 11.5002,407.828 12,397.5C 12.5,396.333 13.3333,395.5 14.5,395C 29.5448,394.183 44.5448,394.35 59.5,395.5C 60.1924,396.025 60.6924,396.692 61,397.5C 61.4998,406.827 61.6665,416.161 61.5,425.5 Z"></path></g><g><path style="opacity:0.976" fill="#7a5aff" d="M 91.5,399.5 C 92.404,400.209 92.7373,401.209 92.5,402.5C 108.5,402.5 124.5,402.5 140.5,402.5C 140.263,401.209 140.596,400.209 141.5,399.5C 141.5,409.167 141.5,418.833 141.5,428.5C 140.596,427.791 140.263,426.791 140.5,425.5C 124.167,425.5 107.833,425.5 91.5,425.5C 91.5,416.833 91.5,408.167 91.5,399.5 Z"></path></g><g><path style="opacity:0.979" fill="#795bff" d="M 251.5,402.5 C 268.167,402.5 284.833,402.5 301.5,402.5C 301.5,408.5 301.5,414.5 301.5,420.5C 285.167,420.5 268.833,420.5 252.5,420.5C 252.737,419.209 252.404,418.209 251.5,417.5C 251.5,412.5 251.5,407.5 251.5,402.5 Z"></path></g><g><path style="opacity:0.967" fill="#8055ff" d="M 251.5,417.5 C 252.404,418.209 252.737,419.209 252.5,420.5C 268.833,420.5 285.167,420.5 301.5,420.5C 301.5,426.833 301.5,433.167 301.5,439.5C 300.596,440.209 300.263,441.209 300.5,442.5C 284.5,442.5 268.5,442.5 252.5,442.5C 252.737,443.791 252.404,444.791 251.5,445.5C 251.5,436.167 251.5,426.833 251.5,417.5 Z"></path></g><g><path style="opacity:0.98" fill="#8055ff" d="M 61.5,425.5 C 61.5,430.167 61.5,434.833 61.5,439.5C 60.596,440.209 60.2627,441.209 60.5,442.5C 44.5,442.5 28.5,442.5 12.5,442.5C 12.7373,441.209 12.404,440.209 11.5,439.5C 11.5,435.833 11.5,432.167 11.5,428.5C 12.404,427.791 12.7373,426.791 12.5,425.5C 28.8333,425.5 45.1667,425.5 61.5,425.5 Z"></path></g><g><path style="opacity:0.974" fill="#8055ff" d="M 91.5,425.5 C 107.833,425.5 124.167,425.5 140.5,425.5C 140.263,426.791 140.596,427.791 141.5,428.5C 141.5,433.167 141.5,437.833 141.5,442.5C 125.167,442.5 108.833,442.5 92.5,442.5C 92.7373,443.791 92.404,444.791 91.5,445.5C 91.5,438.833 91.5,432.167 91.5,425.5 Z"></path></g><g><path style="opacity:0.977" fill="#8055ff" d="M 221.5,425.5 C 221.5,432.167 221.5,438.833 221.5,445.5C 220.596,444.791 220.263,443.791 220.5,442.5C 204.5,442.5 188.5,442.5 172.5,442.5C 172.737,441.209 172.404,440.209 171.5,439.5C 171.5,435.833 171.5,432.167 171.5,428.5C 172.404,427.791 172.737,426.791 172.5,425.5C 188.833,425.5 205.167,425.5 221.5,425.5 Z"></path></g><g><path style="opacity:0.977" fill="#8650ff" d="M 11.5,439.5 C 12.404,440.209 12.7373,441.209 12.5,442.5C 28.5,442.5 44.5,442.5 60.5,442.5C 60.2627,441.209 60.596,440.209 61.5,439.5C 61.5,445.5 61.5,451.5 61.5,457.5C 60.596,458.209 60.2627,459.209 60.5,460.5C 44.5,460.5 28.5,460.5 12.5,460.5C 12.7373,461.791 12.404,462.791 11.5,463.5C 11.5,455.5 11.5,447.5 11.5,439.5 Z"></path></g><g><path style="opacity:0.974" fill="#8650ff" d="M 141.5,442.5 C 141.5,447.5 141.5,452.5 141.5,457.5C 140.596,458.209 140.263,459.209 140.5,460.5C 124.5,460.5 108.5,460.5 92.5,460.5C 92.7373,461.791 92.404,462.791 91.5,463.5C 91.5,457.5 91.5,451.5 91.5,445.5C 92.404,444.791 92.7373,443.791 92.5,442.5C 108.833,442.5 125.167,442.5 141.5,442.5 Z"></path></g><g><path style="opacity:0.98" fill="#8650ff" d="M 171.5,439.5 C 172.404,440.209 172.737,441.209 172.5,442.5C 188.5,442.5 204.5,442.5 220.5,442.5C 220.263,443.791 220.596,444.791 221.5,445.5C 221.5,449.5 221.5,453.5 221.5,457.5C 220.596,458.209 220.263,459.209 220.5,460.5C 204.167,460.5 187.833,460.5 171.5,460.5C 171.5,453.5 171.5,446.5 171.5,439.5 Z"></path></g><g><path style="opacity:0.987" fill="#8650ff" d="M 301.5,439.5 C 301.5,445.5 301.5,451.5 301.5,457.5C 300.596,458.209 300.263,459.209 300.5,460.5C 284.167,460.5 267.833,460.5 251.5,460.5C 251.5,455.5 251.5,450.5 251.5,445.5C 252.404,444.791 252.737,443.791 252.5,442.5C 268.5,442.5 284.5,442.5 300.5,442.5C 300.263,441.209 300.596,440.209 301.5,439.5 Z"></path></g><g><path style="opacity:0.977" fill="#8c4bff" d="M 61.5,457.5 C 61.6658,462.179 61.4992,466.845 61,471.5C 60.5,473.333 59.3333,474.5 57.5,475C 43.5,475.667 29.5,475.667 15.5,475C 14.0692,474.535 12.9025,473.701 12,472.5C 11.502,469.518 11.3354,466.518 11.5,463.5C 12.404,462.791 12.7373,461.791 12.5,460.5C 28.5,460.5 44.5,460.5 60.5,460.5C 60.2627,459.209 60.596,458.209 61.5,457.5 Z"></path></g><g><path style="opacity:0.976" fill="#8c4bff" d="M 141.5,457.5 C 141.666,462.511 141.499,467.511 141,472.5C 140.097,473.701 138.931,474.535 137.5,475C 123.5,475.667 109.5,475.667 95.5,475C 93.6667,474.5 92.5,473.333 92,471.5C 91.5026,468.854 91.3359,466.187 91.5,463.5C 92.404,462.791 92.7373,461.791 92.5,460.5C 108.5,460.5 124.5,460.5 140.5,460.5C 140.263,459.209 140.596,458.209 141.5,457.5 Z"></path></g><g><path style="opacity:0.972" fill="#8b4bff" d="M 221.5,457.5 C 221.666,462.511 221.499,467.511 221,472.5C 220.097,473.701 218.931,474.535 217.5,475C 203.5,475.667 189.5,475.667 175.5,475C 173.667,474.5 172.5,473.333 172,471.5C 171.501,467.848 171.335,464.182 171.5,460.5C 187.833,460.5 204.167,460.5 220.5,460.5C 220.263,459.209 220.596,458.209 221.5,457.5 Z"></path></g><g><path style="opacity:0.972" fill="#8c4bff" d="M 301.5,457.5 C 301.666,462.511 301.499,467.511 301,472.5C 300.167,473.333 299.333,474.167 298.5,475C 284.167,475.667 269.833,475.667 255.5,475C 253.667,474.5 252.5,473.333 252,471.5C 251.501,467.848 251.335,464.182 251.5,460.5C 267.833,460.5 284.167,460.5 300.5,460.5C 300.263,459.209 300.596,458.209 301.5,457.5 Z"></path></g></svg>