<svg xmlns="http://www.w3.org/2000/svg" xmlns:xlink="http://www.w3.org/1999/xlink" width="500px" height="500px" style="shape-rendering:geometricPrecision; text-rendering:geometricPrecision; image-rendering:optimizeQuality; fill-rule:evenodd; clip-rule:evenodd"><g><path style="opacity:0.994" fill="#4353ff" d="M 53.5,113.5 C 94.6889,116.862 122.522,137.862 137,176.5C 138.479,182.083 139.479,187.749 140,193.5C 142.148,229.492 144.148,265.492 146,301.5C 161.137,261.755 176.47,222.088 192,182.5C 200.324,162.517 212.824,145.684 229.5,132C 246.713,119.318 266.047,113.152 287.5,113.5C 295.008,175.56 303.008,237.56 311.5,299.5C 323.425,262.89 335.259,226.223 347,189.5C 355.533,167.907 368.366,149.407 385.5,134C 403.803,119.954 424.47,113.454 447.5,114.5C 420,182.167 392.5,249.833 365,317.5C 353.785,344.38 335.285,364.547 309.5,378C 294.557,384.689 278.89,387.855 262.5,387.5C 254.195,330.2 246.029,272.866 238,215.5C 225,249.167 212,282.833 199,316.5C 187.441,343.386 168.941,363.886 143.5,378C 129.001,384.922 113.834,387.755 98,386.5C 82.9484,295.524 68.1151,204.524 53.5,113.5 Z"></path></g></svg>